<?xml version="1.0" encoding="utf-8"?>
<!-- Generator: Adobe Illustrator 19.2.0, SVG Export Plug-In . SVG Version: 6.00 Build 0)  -->
<svg version="1.1" id="Layer_2_1_" xmlns="http://www.w3.org/2000/svg" xmlns:xlink="http://www.w3.org/1999/xlink" x="0px" y="0px"
	 viewBox="0 0 379.373 108.277" style="enable-background:new 0 0 379.373 108.277;" xml:space="preserve">
<path style="fill:#706F6F;" d="M24.309,37.573h-9.152V66.6c0,0.926-0.535,1.478-1.43,1.478h-1.716c-0.534,0-1.43-0.192-1.43-1.478
	V37.573H1.43c-0.949,0-1.43-0.449-1.43-1.335V34.76c0-0.917,0.481-1.383,1.43-1.383h22.879c0.98,0,1.477,0.465,1.477,1.383v1.477
	C25.787,36.847,25.53,37.573,24.309,37.573z M32.879,42.919c-0.527-0.096-1.555-0.198-2.421-0.198c-3.251,0-7.393,1.343-8.655,2.454
	c-0.94,0.822-1.212,1.512-1.212,3.075v18.399c0,1.244,0.866,1.43,1.383,1.43h1.573c0.516,0,1.383-0.186,1.383-1.43V49.583
	c0-0.724,0.104-1.038,0.143-1.096l0.045-0.073c0.138-0.277,0.401-0.451,0.629-0.567c0.813-0.488,2.586-0.981,4.711-0.981
	c0.284,0,0.756,0.03,1.175,0.055c0.355,0.022,0.673,0.041,0.827,0.041c0.634,0,1.122-0.376,1.279-1.011
	c0.098-0.54,0.151-1.42,0.151-1.848C33.889,43.677,33.72,43.127,32.879,42.919z M55.672,43.197h-1.573
	c-0.516,0-1.382,0.192-1.382,1.477V62.12c0,0.667-0.134,1.139-0.197,1.248c-0.173,0.243-0.468,0.426-0.691,0.501
	c-1.272,0.498-3.095,0.729-5.736,0.729c-3.3,0-4.087-0.838-4.429-1.677c-0.234-0.507-0.385-1.869-0.385-3.471V44.674
	c0-0.939-0.504-1.477-1.383-1.477h-1.574c-0.917,0-1.383,0.497-1.383,1.477v15.157c0,2.483,0.197,4.235,0.605,5.371
	c0.903,2.287,3.465,3.399,7.831,3.399c4.271,0,7.608-0.527,9.927-1.571c1.194-0.565,1.75-1.611,1.75-3.291V44.674
	C57.054,43.453,56.303,43.197,55.672,43.197z M72.927,54.23l-3.341-1.051c-3.517-1.064-3.808-2.173-3.808-3.31
	c0-1.568,0.369-3.241,4.767-3.241c0.804,0,2.901,0.059,5.07,0.613c0.09,0.015,0.191,0.035,0.292,0.056
	c0.242,0.048,0.47,0.094,0.645,0.094c0.525,0,0.977-0.35,1.119-0.85c0.287-0.862,0.454-1.428,0.454-1.772
	c0-0.744-0.385-1.194-1.213-1.414c-1.625-0.427-3.986-0.683-6.318-0.683c-6.072,0-9.152,2.501-9.152,7.435
	c0,3.419,1.894,5.706,5.631,6.796l3.761,1.143c3.717,1.144,3.905,1.948,3.905,3.167c0,1.757-0.612,3.384-5.053,3.384
	c-2.321,0-4.221-0.257-5.807-0.786l-0.188-0.066c-0.405-0.144-0.712-0.245-0.963-0.245c-0.324,0-0.917,0.126-1.25,0.961
	c-0.313,0.752-0.466,1.295-0.466,1.661c0,0.417,0.168,0.981,0.945,1.291c1.916,0.876,5.31,1.187,7.634,1.187
	c7.8,0,9.437-4.069,9.437-7.483C79.028,56.95,76.693,55.392,72.927,54.23z M95.925,64.408c-2.929-0.14-4.318-0.597-4.955-1.633
	l-0.002-0.003c-0.477-0.764-0.691-2.023-0.691-4.085V47.296h4.862c0.925,0,1.477-0.517,1.477-1.382v-1.24
	c0-0.852-0.566-1.382-1.477-1.382h-4.862v-4.957c0-1.327-0.806-1.525-1.287-1.525h-1.62c-0.352,0-1.181,0.145-1.287,1.508
	c-0.098,2.701-0.128,4.261-0.139,4.975h-2.579c-0.827,0-1.382,0.574-1.382,1.43v1.24c0,0.798,0.517,1.334,1.287,1.334h2.622v11.201
	c0,3.875,0.441,5.867,1.638,7.362c1.772,2.095,4.307,2.504,8.085,2.504c0.339,0,1.372,0,1.475-1.139
	c0.047-0.426,0.098-1.071,0.098-1.482C97.189,64.927,96.769,64.478,95.925,64.408z M119.591,54.875c0,0.831-0.035,1.405-0.505,1.796
	c-0.341,0.273-0.738,0.397-1.258,0.397h-14.387c0.162,6.315,2.687,7.53,7.237,7.53c2.619,0,4.223-0.352,5.447-0.697
	c0.581-0.174,1.018-0.256,1.369-0.256c0.48,0,0.848,0.249,1.093,0.74c0.144,0.376,0.432,1.198,0.432,1.691
	c0,0.761-0.565,1.093-1.056,1.298c-2.01,0.804-4.659,1.228-7.667,1.228c-8.057,0-11.344-3.742-11.344-12.917
	c0-8.91,3.574-13.06,11.249-13.06C118.885,42.625,119.591,48.173,119.591,54.875z M103.454,53.302h11.839
	c0.009-0.21,0.009-0.434,0.009-0.715c0-3.804-0.873-6.006-5.339-6.006C105.63,46.581,103.718,48.536,103.454,53.302z
	 M144.568,32.806v30.791c0,0.893-0.091,1.518-0.278,1.907c-0.333,0.842-1.089,1.284-1.713,1.575
	c-1.898,0.923-5.31,1.522-8.686,1.522c-7.313,0-10.295-3.604-10.295-12.44c0-9.741,3.287-13.536,11.725-13.536
	c1.413,0,3.425,0.174,4.91,0.647V32.806c0-0.652,0.256-1.43,1.478-1.43h1.525C144.132,31.376,144.568,31.844,144.568,32.806z
	 M139.416,63.924c0.302-0.134,0.561-0.373,0.663-0.611c0.069-0.211,0.152-0.747,0.152-1.385V48.536c0-1.015-0.206-1.111-0.581-1.283
	c-0.799-0.359-2.384-0.576-4.233-0.576c-5.768,0-7.435,2.074-7.435,9.247c0,6.44,1.572,8.723,6.006,8.723
	C136.487,64.645,138.365,64.397,139.416,63.924z M244.529,65.668c0.178,0.322,0.401,0.723,0.401,1.219
	c0,0.519-0.367,0.957-0.874,1.042c-0.362,0.107-1.74,0.197-2.272,0.197c-0.78,0-1.305-0.36-1.755-1.206l-7.433-13.603
	c-0.804,0.04-1.761,0.081-2.776,0.081h-4.242V66.6c0,0.926-0.552,1.478-1.478,1.478h-1.668c-0.879,0-1.382-0.539-1.382-1.478V38.335
	c0-3.475,1.426-4.957,4.767-4.957h3.765c4.064,0,6.896,0.338,8.659,1.034c3.537,1.397,5.115,4.106,5.115,8.785
	s-2.175,7.893-6.302,9.33l7.337,12.884C244.442,65.511,244.485,65.588,244.529,65.668z M235.931,38.156
	c-1.04-0.452-3.044-0.679-5.968-0.679h-3.051c-1.01,0-1.334,0.335-1.334,1.382v10.486h4.481c2.678,0,4.529-0.246,5.825-0.774
	c1.862-0.792,2.85-2.601,2.85-5.231C238.733,39.981,237.661,38.866,235.931,38.156z M266.427,54.875
	c0,0.831-0.035,1.405-0.505,1.796c-0.341,0.273-0.738,0.397-1.258,0.397h-14.387c0.162,6.315,2.687,7.53,7.237,7.53
	c2.619,0,4.224-0.352,5.448-0.697c0.581-0.174,1.018-0.256,1.368-0.256c0.48,0,0.848,0.249,1.094,0.74
	c0.144,0.377,0.431,1.199,0.431,1.691c0,0.761-0.565,1.093-1.056,1.298c-2.01,0.804-4.659,1.228-7.667,1.228
	c-8.057,0-11.344-3.742-11.344-12.917c0-8.91,3.575-13.06,11.25-13.06C265.72,42.625,266.427,48.173,266.427,54.875z
	 M250.289,53.302h11.839c0.009-0.21,0.009-0.434,0.009-0.715c0-3.804-0.873-6.006-5.338-6.006
	C252.465,46.581,250.553,48.536,250.289,53.302z M289.765,43.299c-0.613-0.102-1.547-0.149-1.984-0.149
	c-0.98,0-1.316,0.84-1.538,1.395l-2.244,5.938c-2.702,7.146-3.682,9.735-4.467,12.071c-0.969-2.86-2.164-6.079-6.24-17.066
	l-0.358-0.965c-0.194-0.58-0.458-1.374-1.501-1.374c-0.459,0-1.536,0-2.134,0.151c-0.663,0.121-1.059,0.581-1.059,1.231
	c0,0.277,0.113,0.684,0.365,1.314l7.723,20.213c0.442,1.13,0.949,2.066,2.684,2.066h0.858c1.665,0,2.274-0.97,2.684-2.018
	l7.964-20.316c0.197-0.541,0.315-1.03,0.315-1.307C290.831,44.121,290.695,43.485,289.765,43.299z M297.219,43.197h-1.573
	c-0.917,0-1.382,0.513-1.382,1.525v21.926c0,0.949,0.465,1.43,1.382,1.43h1.573c0.516,0,1.382-0.186,1.382-1.43V44.674
	C298.601,43.453,297.85,43.197,297.219,43.197z M296.361,33.092c-1.722,0-2.669,1.033-2.669,2.907c0,1.834,0.898,2.765,2.669,2.765
	c1.802,0,2.716-0.947,2.716-2.813C299.078,34.028,298.19,33.092,296.361,33.092z M322.911,54.875c0,0.831-0.035,1.405-0.505,1.796
	c-0.341,0.273-0.738,0.397-1.258,0.397h-14.387c0.162,6.315,2.687,7.53,7.237,7.53c2.619,0,4.224-0.352,5.448-0.697
	c0.581-0.174,1.018-0.256,1.368-0.256c0.48,0,0.848,0.249,1.094,0.74c0.144,0.377,0.431,1.199,0.431,1.691
	c0,0.761-0.565,1.093-1.056,1.298c-2.01,0.804-4.659,1.228-7.667,1.228c-8.057,0-11.344-3.742-11.344-12.917
	c0-8.91,3.575-13.06,11.25-13.06C322.205,42.625,322.911,48.173,322.911,54.875z M306.773,53.302h11.839
	c0.009-0.21,0.009-0.434,0.009-0.715c0-3.804-0.873-6.006-5.338-6.006C308.949,46.581,307.037,48.536,306.773,53.302z
	 M358.569,43.303c-0.717-0.153-1.654-0.153-2.054-0.153c-1.067,0-1.312,0.88-1.509,1.593c-2.773,10.354-3.787,14.333-4.541,17.462
	c-0.847-2.845-1.99-6.25-5.224-15.682c-0.561-1.63-1.216-2.18-2.596-2.18h-0.524c-1.511,0-2.095,0.874-2.55,2.283
	c-3.078,9.43-4.083,12.882-4.861,15.619c-0.741-2.874-1.733-6.535-4.856-17.648c-0.248-0.892-0.579-1.445-1.461-1.445
	c-0.384,0-1.544,0.043-2.144,0.152c-0.868,0.174-1.05,0.765-1.05,1.23c0,0.288,0.13,0.851,0.258,1.276l5.863,20.261
	c0.422,1.422,1.24,2.057,2.65,2.057h0.715c1.5,0,2.295-0.608,2.743-2.099c1.308-4.098,2.27-7.096,2.99-9.342
	c1.068-3.328,1.607-5.008,1.954-6.161c0.504,1.6,1.381,4.225,3.639,10.97l1.52,4.542c0.418,1.254,1.037,2.089,2.693,2.089h0.81
	c1.799,0,2.375-1.257,2.652-2.209l5.532-20.03l0.086-0.336c0.12-0.462,0.214-0.827,0.214-1.115
	C359.518,43.875,359.169,43.453,358.569,43.303z M373.103,54.23l-3.341-1.051c-3.517-1.064-3.808-2.173-3.808-3.31
	c0-1.568,0.369-3.241,4.767-3.241c0.804,0,2.902,0.059,5.069,0.613c0.091,0.015,0.191,0.035,0.292,0.056
	c0.241,0.048,0.47,0.094,0.644,0.094c0.525,0,0.977-0.35,1.119-0.85c0.287-0.862,0.454-1.427,0.454-1.772
	c0-0.744-0.385-1.194-1.213-1.414c-1.625-0.427-3.986-0.683-6.318-0.683c-6.073,0-9.152,2.501-9.152,7.435
	c0,3.419,1.895,5.706,5.632,6.796l3.761,1.143c3.717,1.144,3.905,1.948,3.905,3.167c0,1.757-0.612,3.384-5.053,3.384
	c-2.321,0-4.221-0.257-5.807-0.786l-0.19-0.066c-0.405-0.144-0.711-0.245-0.963-0.245c-0.323,0-0.916,0.126-1.251,0.961
	c-0.313,0.752-0.466,1.295-0.466,1.661c0,0.417,0.168,0.981,0.945,1.291c1.916,0.876,5.31,1.187,7.634,1.187
	c7.801,0,9.438-4.069,9.438-7.483C379.204,56.95,376.869,55.392,373.103,54.23z"/>
<path style="fill:#3F3F3F;stroke:#3F3F3F;stroke-width:0.1;stroke-miterlimit:10;" d="M192.402,84.989h8.9v1.2h-3.8v10.7h-1.3v-10.7
	h-3.8L192.402,84.989L192.402,84.989z M207.202,87.689c-0.6,0-1.2,0.2-1.7,0.4s-0.8,0.6-1.1,1h-0.1c0.1-0.3,0.1-0.6,0.1-1.1v-3.8
	h-1.4v12.8h1.3v-4.7c0-1.2,0.2-2,0.6-2.5c0.5-0.5,1.2-0.8,2.1-0.8c0.7,0,1.3,0.1,1.6,0.5c0.3,0.3,0.5,0.9,0.5,1.6v5.8l1.4-0.1v-5.8
	c0-1.2-0.3-2-0.8-2.5C209.101,87.989,208.301,87.689,207.202,87.689z M219.501,88.889c0.7,0.7,1,1.7,1,2.9v0.9h-6.2
	c0,1,0.3,1.8,0.8,2.4c0.5,0.5,1.2,0.8,2.1,0.8c1,0,1.9-0.2,2.9-0.6v1.2c-0.5,0.2-0.9,0.4-1.4,0.4c-0.6,0.1-1.1,0.1-1.7,0.1
	c-1.3,0-2.4-0.4-3.1-1.2c-0.8-0.8-1.1-1.9-1.1-3.3s0.4-2.6,1.1-3.4c0.7-0.8,1.7-1.3,2.9-1.3
	C217.902,87.789,218.801,88.189,219.501,88.889z M218.801,91.489c0-0.9-0.2-1.5-0.6-2c-0.3-0.4-0.9-0.6-1.6-0.6
	c-0.7,0-1.3,0.2-1.7,0.7s-0.7,1.1-0.8,1.9H218.801z M235.102,94.589c-0.1,0.4-0.2,0.7-0.2,0.9h-0.1c-0.1-0.7-0.3-1.5-0.6-2.4
	l-1.6-5.1h-1.5l-1.6,5.1c-0.1,0.3-0.2,0.7-0.3,1.2s-0.2,0.9-0.3,1.2h-0.1c0-0.4-0.2-1.2-0.5-2.4c-0.3-1.1-0.7-2.9-1.3-5.1h-1.4
	l2.4,8.9h1.6l1.7-5.2c0.2-0.5,0.4-1.2,0.6-2.2h0.1c0.3,1.2,0.5,1.9,0.6,2.2l1.6,5.2h1.5l2.5-8.9h-1.4
	C235.802,91.989,235.202,94.189,235.102,94.589z M244.001,87.689c-0.6,0-1.2,0.2-1.7,0.4s-0.8,0.6-1.1,1h-0.1
	c0.1-0.3,0.1-0.6,0.1-1.1v-3.8h-1.4v12.8h1.4v-4.7c0-1.2,0.2-2,0.6-2.5c0.5-0.5,1.2-0.8,2.1-0.8c0.7,0,1.3,0.1,1.6,0.5
	c0.3,0.3,0.5,0.9,0.5,1.6v5.8l1.3-0.1v-5.8c0-1.2-0.3-2-0.8-2.5C245.901,87.989,245.101,87.689,244.001,87.689z M253.501,94.189
	c-0.2,0.6-0.3,1.1-0.4,1.4h-0.1c-0.1-0.5-0.4-1.3-0.8-2.5l-2-5.1h-1.5l3.8,8.9l-0.5,1.3c-0.4,1.1-1.1,1.6-2,1.6c-0.4,0-0.7,0-1-0.1
	v1.1c0.4,0.1,0.8,0.1,1.2,0.1c0.8,0,1.4-0.2,1.9-0.6s0.9-1.1,1.3-2.1l3.8-10.2h-1.5C254.501,91.489,253.702,93.489,253.501,94.189z
	 M269.702,88.989c0.6,0.8,1,1.9,1,3.4s-0.3,2.6-1,3.4s-1.6,1.2-2.7,1.2c-0.6,0-1.1-0.1-1.6-0.3c-0.5-0.2-0.9-0.5-1.2-1h-0.1
	l-0.3,1.1h-1v-12.6h1.4v3.1c0,0.7,0,1.3-0.1,1.9h0.1c0.7-1,1.6-1.4,2.8-1.4S269.102,88.189,269.702,88.989z M269.301,92.389
	c0-1.2-0.2-2-0.6-2.6s-1-0.9-1.9-0.9s-1.6,0.3-2,0.8s-0.6,1.4-0.6,2.7c0,1.3,0.2,2.2,0.6,2.7s1.1,0.8,2,0.8c0.8,0,1.5-0.3,1.9-0.9
	C269.101,94.389,269.301,93.489,269.301,92.389z M279.402,88.889c0.7,0.7,1,1.7,1,2.9v0.9h-6.4c0,1,0.3,1.8,0.8,2.4
	c0.5,0.5,1.2,0.8,2.1,0.8c1,0,1.9-0.2,2.9-0.6v1.2c-0.5,0.2-0.9,0.4-1.4,0.4c-0.4,0.1-0.9,0.1-1.5,0.1c-1.3,0-2.4-0.4-3.1-1.2
	c-0.8-0.8-1.1-1.9-1.1-3.3s0.4-2.6,1.1-3.4s1.7-1.3,2.9-1.3C277.801,87.789,278.702,88.189,279.402,88.889z M278.702,91.489
	c0-0.9-0.2-1.5-0.6-2c-0.3-0.4-0.9-0.6-1.6-0.6s-1.3,0.2-1.7,0.7c-0.4,0.5-0.7,1.1-0.8,1.9H278.702z M282.802,87.389v0.5l-1.6,0.5
	v0.6h1.6v7.9h1.4v-7.9h2.3v-1h-2.3v-0.7c0-0.7,0.2-1.3,0.4-1.6c0.2-0.3,0.6-0.5,1.1-0.5c0.3,0,0.8,0.1,1.3,0.3l0.4-1.1
	c-0.7-0.2-1.2-0.3-1.7-0.3C283.802,84.089,282.802,85.189,282.802,87.389z M294.801,88.889c0.7,1,1,2.1,1,3.5c0,1.5-0.4,2.6-1.1,3.4
	s-1.7,1.2-3,1.2c-0.8,0-1.5-0.2-2.1-0.6s-1.1-0.9-1.4-1.6s-0.5-1.5-0.5-2.5c0-1.5,0.4-2.6,1.1-3.4s1.7-1.2,3-1.2
	C293.001,87.689,294.001,88.089,294.801,88.889z M294.402,92.389c0-1.1-0.2-2-0.7-2.6s-1.1-0.9-2-0.9s-1.6,0.3-2,0.9
	c-0.5,0.6-0.7,1.5-0.7,2.6s0.2,2,0.7,2.6s1.1,0.9,2,0.9s1.6-0.3,2-0.9C294.202,94.389,294.402,93.489,294.402,92.389z
	 M300.702,88.389c-0.5,0.3-0.9,0.7-1.2,1.3h-0.1l-0.2-1.7h-1.1v9h1.4v-4.8c0-0.9,0.3-1.6,0.8-2.2c0.6-0.6,1.2-0.9,1.9-0.9
	c0.3,0,0.6,0,1,0.1l0.2-1.3c-0.3-0.1-0.7-0.1-1.1-0.1C301.702,87.789,301.202,87.889,300.702,88.389z M311.301,88.889
	c0.7,0.7,1,1.7,1,2.9v0.9h-6.2c0,1,0.3,1.8,0.8,2.4c0.5,0.5,1.2,0.8,2.1,0.8c1,0,1.9-0.2,2.9-0.6v1.2c-0.5,0.2-0.9,0.4-1.4,0.4
	c-0.6,0.1-1.1,0.1-1.7,0.1c-1.3,0-2.4-0.4-3.1-1.2c-0.8-0.8-1.1-1.9-1.1-3.3s0.4-2.6,1.1-3.4s1.7-1.3,2.9-1.3
	C309.702,87.789,310.601,88.189,311.301,88.889z M310.602,91.489c0-0.9-0.2-1.5-0.6-2c-0.3-0.4-0.9-0.6-1.6-0.6s-1.3,0.2-1.7,0.7
	s-0.7,1.1-0.8,1.9H310.602z M322.101,94.189c-0.2,0.6-0.3,1.1-0.4,1.4h-0.1c-0.1-0.5-0.4-1.3-0.8-2.5l-2-5.1h-1.5l3.8,8.9l-0.5,1.3
	c-0.4,1.1-1.1,1.6-2,1.6c-0.4,0-0.7,0-1-0.1v1.1c0.4,0.1,0.8,0.1,1.2,0.1c0.8,0,1.4-0.2,1.9-0.6s0.9-1.1,1.3-2.1l3.8-10.2h-1.5
	C323.101,91.489,322.301,93.489,322.101,94.189z M333.801,88.889c0.7,1,1,2.1,1,3.5c0,1.5-0.4,2.6-1.1,3.4s-1.7,1.2-3,1.2
	c-0.8,0-1.5-0.2-2.1-0.6s-1.1-0.9-1.4-1.6s-0.5-1.5-0.5-2.5c0-1.5,0.4-2.6,1.1-3.4s1.7-1.2,3-1.2
	C332.001,87.689,333.001,88.089,333.801,88.889z M333.402,92.389c0-1.1-0.2-2-0.7-2.6s-1.1-0.9-2-0.9s-1.6,0.3-2,0.9
	c-0.5,0.6-0.7,1.5-0.7,2.6s0.2,2,0.7,2.6s1.1,0.9,2,0.9s1.6-0.3,2-0.9C333.202,94.389,333.402,93.489,333.402,92.389z
	 M343.202,92.589c0,1.2-0.2,2-0.6,2.5s-1.1,0.8-2,0.8c-0.7,0-1.3-0.1-1.6-0.5c-0.3-0.3-0.5-0.9-0.5-1.6v-5.8h-1.4v5.8
	c0,1.2,0.3,2,0.8,2.5s1.3,0.8,2.4,0.8c0.6,0,1.2-0.2,1.7-0.4c0.5-0.2,0.9-0.6,1.2-1h0.1l0.2,1.2h1.1v-8.9h-1.4L343.202,92.589
	L343.202,92.589z M358.602,88.989c0.6,0.8,1,1.9,1,3.4s-0.3,2.6-1,3.4s-1.6,1.2-2.7,1.2c-0.6,0-1.1-0.1-1.6-0.3
	c-0.5-0.2-0.9-0.5-1.2-1h-0.1l-0.3,1.1h-1v-12.6h1.4v3.1c0,0.7,0,1.3-0.1,1.9h0.1c0.6-1,1.6-1.4,2.8-1.4
	S358.001,88.189,358.602,88.989z M358.202,92.389c0-1.2-0.2-2-0.6-2.6s-1-0.9-1.9-0.9s-1.6,0.3-2,0.8s-0.6,1.4-0.6,2.7
	c0,1.3,0.2,2.2,0.6,2.7s1.1,0.8,2,0.8c0.8,0,1.5-0.3,1.9-0.9C358.001,94.389,358.202,93.489,358.202,92.389z M368.001,92.589
	c0,1.2-0.2,2-0.6,2.5s-1.1,0.8-2,0.8c-0.7,0-1.3-0.1-1.6-0.5c-0.3-0.3-0.5-0.9-0.5-1.6v-5.8h-1.4v5.8c0,1.2,0.3,2,0.8,2.5
	s1.3,0.8,2.4,0.8c0.6,0,1.2-0.2,1.7-0.4c0.5-0.2,0.9-0.6,1.2-1h0.1l0.2,1.2h1.1v-8.9h-1.4L368.001,92.589L368.001,92.589z
	 M377.801,87.989c-1.2,3.5-2,5.5-2.2,6.2c-0.2,0.6-0.3,1.1-0.4,1.4h-0.1c-0.1-0.5-0.4-1.3-0.8-2.5l-2-5.1h-1.5l3.8,8.9l-0.5,1.3
	c-0.4,1.1-1.1,1.6-2,1.6c-0.4,0-0.7,0-1-0.1v1.1c0.4,0.1,0.8,0.1,1.2,0.1c0.8,0,1.4-0.2,1.9-0.6s0.9-1.1,1.3-2.1l3.8-10.2
	C379.301,87.989,377.801,87.989,377.801,87.989z"/>
<path style="fill:#E52A18;" d="M205.704,47.857l-35.667,59.978c-0.169,0.308-0.451,0.443-0.732,0.443
	c-0.463,0-0.923-0.37-0.859-0.946l6.282-40.641l0,0l3.102-20.073c0.315-2.863,2.733-5.03,5.614-5.03h7.455h0.001h11.097
	C205.213,41.587,207.253,45.037,205.704,47.857z"/>
<path style="fill:#216DB5;" d="M190.898,41.588L190.898,41.588l-3.103,20.072c-0.315,2.862-2.733,5.03-5.614,5.03h-7.454H163.63
	c-3.218,0-5.258-3.45-3.709-6.27l35.667-59.977C195.756,0.135,196.039,0,196.32,0c0.464,0,0.923,0.37,0.859,0.947L190.898,41.588z"
	/>
<path style="fill:#551B6B;" d="M190.897,41.588l-3.103,20.073c-0.315,2.862-2.733,5.03-5.614,5.03h-7.454l3.102-20.073
	c0.315-2.863,2.733-5.03,5.614-5.03L190.897,41.588"/>
</svg>
