<?xml version="1.0" standalone="no"?>
<!DOCTYPE svg PUBLIC "-//W3C//DTD SVG 20010904//EN"
 "http://www.w3.org/TR/2001/REC-SVG-20010904/DTD/svg10.dtd">
<svg version="1.0" xmlns="http://www.w3.org/2000/svg"
 width="1496.000000pt" height="370.000000pt" viewBox="0 0 1496.000000 370.000000"
 preserveAspectRatio="xMidYMid meet">
<g transform="translate(0.000000,370.000000) scale(0.100000,-0.100000)"
fill="#000000" stroke="none">
<path d="M420 3493 c-131 -14 -250 -96 -292 -201 l-23 -57 -3 -1330 c-3 -1390
-3 -1397 40 -1497 28 -65 111 -142 179 -165 52 -17 299 -18 7084 -21 4936 -2
7051 1 7100 8 141 22 241 91 281 196 18 47 19 96 19 1434 l0 1385 -26 55 c-53
114 -132 172 -256 190 -64 9 -14019 12 -14103 3z m980 -1658 l0 -1055 -275 0
-275 0 0 1055 0 1055 275 0 275 0 0 -1055z m1290 0 l0 -1055 -273 0 -273 0
-337 531 -337 532 2 494 3 495 325 -511 325 -511 3 540 2 540 280 0 280 0 0
-1055z m840 0 l0 -1055 -280 0 -280 0 0 1055 0 1055 280 0 280 0 0 -1055z
m1520 0 l0 -1055 -280 0 -280 0 0 583 c-1 493 -3 579 -14 564 -8 -10 -114
-193 -237 -407 -123 -214 -226 -390 -229 -389 -3 0 -96 158 -207 352 l-203
352 0 472 c0 260 2 473 4 473 2 0 93 -155 202 -345 110 -190 201 -345 204
-345 3 0 109 180 235 400 l230 400 288 0 287 0 0 -1055z m830 0 l0 -1055 -275
0 -275 0 0 1055 0 1055 275 0 275 0 0 -1055z m985 795 l0 -255 -457 -3 -458
-2 0 260 0 260 458 -2 457 -3 0 -255z m2118 -798 c207 -571 377 -1041 377
-1045 0 -4 -150 -7 -334 -7 l-335 0 -25 83 c-13 45 -33 111 -43 147 l-19 65
-330 3 -329 2 -45 -147 -46 -148 -327 -3 c-180 -1 -327 -1 -327 1 0 5 748
2037 760 2065 l10 22 317 0 318 0 378 -1038z m2382 56 c197 -541 368 -1011
381 -1045 l23 -63 -338 0 -338 0 -44 150 -43 150 -329 -2 -329 -3 -46 -147
-46 -148 -328 0 -327 0 13 38 c22 60 744 2015 751 2035 7 16 32 17 325 17
l317 0 358 -982z m2426 -63 c208 -572 379 -1041 379 -1043 0 -1 -152 -1 -337
0 l-338 3 -28 95 c-15 52 -35 119 -43 148 l-15 52 -329 0 -329 0 -6 -22 c-4
-13 -25 -80 -47 -150 l-40 -128 -324 0 c-178 0 -324 3 -324 8 0 4 172 474 382
1045 l382 1037 319 -2 319 -3 379 -1040z m-6921 10 l0 -255 -460 0 -460 0 0
255 0 255 460 0 460 0 0 -255z m0 -805 l0 -250 -460 0 -460 0 0 250 0 250 460
0 460 0 0 -250z"/>
<path d="M8191 1858 c-52 -167 -97 -309 -99 -315 -3 -10 38 -13 187 -13 105 0
191 2 191 5 0 9 -169 588 -177 608 -6 12 -38 -79 -102 -285z"/>
<path d="M10588 1843 l-96 -308 186 -3 c101 -1 187 0 190 3 6 6 -170 615 -178
615 -3 0 -49 -138 -102 -307z"/>
<path d="M13047 2020 c-132 -419 -150 -480 -145 -485 3 -3 88 -4 190 -3 l186
3 -89 305 c-49 168 -91 310 -93 315 -1 6 -24 -55 -49 -135z"/>
</g>
</svg>
